HIERARCHY
ROOT Hips
{
	OFFSET 0.000000 121.760803 0.000000
	CHANNELS 6 Xposition Yposition Zposition Xrotation Yrotation Zrotation 
	JOINT Spine
	{
		OFFSET 0.072000 7.257294 -0.789700
		CHANNELS 3 Xrotation Yrotation Zrotation
		JOINT Spine1
		{
			OFFSET 0.000000 12.508769 -0.658067
			CHANNELS 3 Xrotation Yrotation Zrotation
			JOINT Spine1_split
			{
				OFFSET 0.000000 12.508769 -0.658067
				CHANNELS 3 Xrotation Yrotation Zrotation
				JOINT Spine2
				{
					OFFSET 0.000000 12.508769 -0.658067
					CHANNELS 3 Xrotation Yrotation Zrotation
					JOINT Neck
					{
						OFFSET 0.000000 14.033295 7.520400
						CHANNELS 3 Xrotation Yrotation Zrotation
						JOINT Head
						{
							OFFSET 0.000000 8.198502 5.703100
							CHANNELS 3 Xrotation Yrotation Zrotation
							JOINT HeadTop_End
							{
								OFFSET 0.000000 17.760803 13.332701
								CHANNELS 3 Xrotation Yrotation Zrotation
								End Site
								{
									OFFSET 0.000000 0.000000 0.000000
								}
							}
						}
					}
					JOINT LeftShoulder
					{
						OFFSET 6.292450 5.785301 -0.669000
						CHANNELS 3 Xrotation Yrotation Zrotation
						JOINT LeftShoulder_split
						{
							OFFSET 6.292450 5.785301 -0.669000
							CHANNELS 3 Xrotation Yrotation Zrotation
							JOINT LeftArm
							{
								OFFSET 13.907140 -6.093903 1.965100
								CHANNELS 3 Xrotation Yrotation Zrotation
								JOINT LeftForeArm
								{
									OFFSET 34.140198 0.000000 0.000000
									CHANNELS 3 Xrotation Yrotation Zrotation
									JOINT LeftHand
									{
										OFFSET 40.960209 0.000000 0.000000
										CHANNELS 3 Xrotation Yrotation Zrotation
										JOINT LeftHandThumb1
										{
											OFFSET 10.006996 -7.170425 9.573125
											CHANNELS 3 Xrotation Yrotation Zrotation
											JOINT LeftHandThumb2
											{
												OFFSET 1.835007 -1.059448 1.059443
												CHANNELS 3 Xrotation Yrotation Zrotation
												JOINT LeftHandThumb3
												{
													OFFSET 2.112267 -1.219513 1.219518
													CHANNELS 3 Xrotation Yrotation Zrotation
													JOINT LeftHandThumb4
													{
														OFFSET 4.843811 -2.796570 2.796576
														CHANNELS 3 Xrotation Yrotation Zrotation
														End Site
														{
															OFFSET 0.000000 0.000000 0.000000
														}
													}
												}
											}
										}
										JOINT LeftHandIndex1
										{
											OFFSET 18.389847 -0.922348 4.596882
											CHANNELS 3 Xrotation Yrotation Zrotation
											JOINT LeftHandIndex2
											{
												OFFSET 4.711273 0.000000 0.000000
												CHANNELS 3 Xrotation Yrotation Zrotation
												JOINT LeftHandIndex3
												{
													OFFSET 2.886131 0.000000 0.000000
													CHANNELS 3 Xrotation Yrotation Zrotation
													JOINT LeftHandIndex4
													{
														OFFSET 6.145912 0.000000 0.000000
														CHANNELS 3 Xrotation Yrotation Zrotation
														End Site
														{
															OFFSET 0.000000 0.000000 0.000000
														}
													}
												}
											}
										}
										JOINT LeftHandMiddle1
										{
											OFFSET 18.013008 0.000000 0.000000
											CHANNELS 3 Xrotation Yrotation Zrotation
											JOINT LeftHandMiddle2
											{
												OFFSET 4.946693 0.000000 0.000000
												CHANNELS 3 Xrotation Yrotation Zrotation
												JOINT LeftHandMiddle3
												{
													OFFSET 3.342232 0.000000 0.000000
													CHANNELS 3 Xrotation Yrotation Zrotation
													JOINT LeftHandMiddle4
													{
														OFFSET 4.461754 0.000000 0.000000
														CHANNELS 3 Xrotation Yrotation Zrotation
														End Site
														{
															OFFSET 0.000000 0.000000 0.000000
														}
													}
												}
											}
										}
										JOINT LeftHandRing1
										{
											OFFSET 15.849892 -0.102921 -4.126150
											CHANNELS 3 Xrotation Yrotation Zrotation
											JOINT LeftHandRing2
											{
												OFFSET 3.527054 0.000000 0.000000
												CHANNELS 3 Xrotation Yrotation Zrotation
												JOINT LeftHandRing3
												{
													OFFSET 2.961098 0.000000 0.000000
													CHANNELS 3 Xrotation Yrotation Zrotation
													JOINT LeftHandRing4
													{
														OFFSET 4.927200 0.000000 0.000000
														CHANNELS 3 Xrotation Yrotation Zrotation
														End Site
														{
															OFFSET 0.000000 0.000000 0.000000
														}
													}
												}
											}
										}
										JOINT LeftHandPinky1
										{
											OFFSET 12.791824 -0.832031 -6.799156
											CHANNELS 3 Xrotation Yrotation Zrotation
											JOINT LeftHandPinky2
											{
												OFFSET 3.327133 0.000000 0.000000
												CHANNELS 3 Xrotation Yrotation Zrotation
												JOINT LeftHandPinky3
												{
													OFFSET 3.014900 0.000000 0.000000
													CHANNELS 3 Xrotation Yrotation Zrotation
													JOINT LeftHandPinky4
													{
														OFFSET 5.847786 0.000000 0.000000
														CHANNELS 3 Xrotation Yrotation Zrotation
														End Site
														{
															OFFSET 0.000000 0.000000 0.000000
														}
													}
												}
											}
										}
									}
								}
							}
						}
					}
					JOINT RightShoulder
					{
						OFFSET -6.292450 5.785301 -0.669000
						CHANNELS 3 Xrotation Yrotation Zrotation
						JOINT RightShoulder_split
						{
							OFFSET -6.292450 5.785301 -0.669000
							CHANNELS 3 Xrotation Yrotation Zrotation
							JOINT RightArm
							{
								OFFSET -13.907140 -6.093903 1.965100
								CHANNELS 3 Xrotation Yrotation Zrotation
								JOINT RightForeArm
								{
									OFFSET -34.140198 0.000000 0.000000
									CHANNELS 3 Xrotation Yrotation Zrotation
									JOINT RightHand
									{
										OFFSET -40.960209 0.000000 0.000000
										CHANNELS 3 Xrotation Yrotation Zrotation
										JOINT RightHandThumb1
										{
											OFFSET -10.007050 -7.170456 9.573117
											CHANNELS 3 Xrotation Yrotation Zrotation
											JOINT RightHandThumb2
											{
												OFFSET -1.835007 -1.059448 1.059443
												CHANNELS 3 Xrotation Yrotation Zrotation
												JOINT RightHandThumb3
												{
													OFFSET -2.112267 -1.219513 1.219518
													CHANNELS 3 Xrotation Yrotation Zrotation
													JOINT RightHandThumb4
													{
														OFFSET -4.843834 -2.796585 2.796590
														CHANNELS 3 Xrotation Yrotation Zrotation
														End Site
														{
															OFFSET 0.000000 0.000000 0.000000
														}
													}
												}
											}
										}
										JOINT RightHandIndex1
										{
											OFFSET -18.389870 -0.922424 4.596786
											CHANNELS 3 Xrotation Yrotation Zrotation
											JOINT RightHandIndex2
											{
												OFFSET -4.711273 0.000000 0.000000
												CHANNELS 3 Xrotation Yrotation Zrotation
												JOINT RightHandIndex3
												{
													OFFSET -2.886131 0.000000 0.000000
													CHANNELS 3 Xrotation Yrotation Zrotation
													JOINT RightHandIndex4
													{
														OFFSET -6.145920 0.000000 0.000000
														CHANNELS 3 Xrotation Yrotation Zrotation
														End Site
														{
															OFFSET 0.000000 0.000000 0.000000
														}
													}
												}
											}
										}
										JOINT RightHandMiddle1
										{
											OFFSET -18.013008 0.000000 0.000000
											CHANNELS 3 Xrotation Yrotation Zrotation
											JOINT RightHandMiddle2
											{
												OFFSET -4.946693 0.000000 0.000000
												CHANNELS 3 Xrotation Yrotation Zrotation
												JOINT RightHandMiddle3
												{
													OFFSET -3.342232 0.000000 0.000000
													CHANNELS 3 Xrotation Yrotation Zrotation
													JOINT RightHandMiddle4
													{
														OFFSET -4.461754 0.000000 0.000000
														CHANNELS 3 Xrotation Yrotation Zrotation
														End Site
														{
															OFFSET 0.000000 0.000000 0.000000
														}
													}
												}
											}
										}
										JOINT RightHandRing1
										{
											OFFSET -15.849876 -0.102936 -4.126237
											CHANNELS 3 Xrotation Yrotation Zrotation
											JOINT RightHandRing2
											{
												OFFSET -3.527054 0.000000 0.000000
												CHANNELS 3 Xrotation Yrotation Zrotation
												JOINT RightHandRing3
												{
													OFFSET -2.961098 0.000000 0.000000
													CHANNELS 3 Xrotation Yrotation Zrotation
													JOINT RightHandRing4
													{
														OFFSET -4.927200 0.000000 0.000000
														CHANNELS 3 Xrotation Yrotation Zrotation
														End Site
														{
															OFFSET 0.000000 0.000000 0.000000
														}
													}
												}
											}
										}
										JOINT RightHandPinky1
										{
											OFFSET -12.791786 -0.832077 -6.799222
											CHANNELS 3 Xrotation Yrotation Zrotation
											JOINT RightHandPinky2
											{
												OFFSET -3.327133 0.000000 0.000000
												CHANNELS 3 Xrotation Yrotation Zrotation
												JOINT RightHandPinky3
												{
													OFFSET -3.014900 0.000000 0.000000
													CHANNELS 3 Xrotation Yrotation Zrotation
													JOINT RightHandPinky4
													{
														OFFSET -5.847786 0.000000 0.000000
														CHANNELS 3 Xrotation Yrotation Zrotation
														End Site
														{
															OFFSET 0.000000 0.000000 0.000000
														}
													}
												}
											}
										}
									}
								}
							}
						}
					}
				}
			}
		}
	}
	JOINT LeftUpLeg
	{
		OFFSET 13.026900 -6.336304 -1.092800
		CHANNELS 3 Xrotation Yrotation Zrotation
		JOINT LeftLeg
		{
			OFFSET 0.524474 -46.096886 9.782700
			CHANNELS 3 Xrotation Yrotation Zrotation
			JOINT LeftFoot
			{
				OFFSET -0.524474 -53.427422 -12.948200
				CHANNELS 3 Xrotation Yrotation Zrotation
				JOINT LeftToeBase
				{
					OFFSET 0.192200 -14.009700 16.364100
					CHANNELS 3 Xrotation Yrotation Zrotation
					JOINT LeftToe_End
					{
						OFFSET -1.784700 -0.561700 9.474800
						CHANNELS 3 Xrotation Yrotation Zrotation
						End Site
						{
							OFFSET 0.000000 0.000000 0.000000
						}
					}
				}
			}
		}
	}
	JOINT RightUpLeg
	{
		OFFSET -12.883000 -6.336304 -1.092800
		CHANNELS 3 Xrotation Yrotation Zrotation
		JOINT RightLeg
		{
			OFFSET -0.524587 -46.096825 9.782800
			CHANNELS 3 Xrotation Yrotation Zrotation
			JOINT RightFoot
			{
				OFFSET 0.524587 -53.427383 -12.948300
				CHANNELS 3 Xrotation Yrotation Zrotation
				JOINT RightToeBase
				{
					OFFSET -0.192200 -14.009700 16.364100
					CHANNELS 3 Xrotation Yrotation Zrotation
					JOINT RightToe_End
					{
						OFFSET 1.784700 -0.561700 9.474800
						CHANNELS 3 Xrotation Yrotation Zrotation
						End Site
						{
							OFFSET 0.000000 0.000000 0.000000
						}
					}
				}
			}
		}
	}
}
MOTION
Frames: 4
Frame Time: 0.016667
-0.538515 107.944420 0.579833 -6.104437 -43.212906 -4.138879 5.826194 4.833864 -1.152244 11.836540 9.037616 -3.083967 0.000000 0.000000 0.000000 11.836540 9.037616 -3.083970 -9.907369 -1.416036 0.452970 -0.529823 20.570691 -0.772811 0.000000 0.000000 0.000000 1.396585 -0.734468 -7.859329 0.000000 0.000000 0.000000 -14.236648 2.407733 -63.256786 9.875225 -47.538376 5.912057 16.118529 0.922185 18.828767 9.163600 4.814103 -5.499019 -0.335359 0.032564 0.783692 0.000001 -0.000015 -0.000013 0.000001 -0.000003 0.000001 -0.902015 -6.980973 -3.808420 0.033412 0.804259 -16.418979 -0.000005 -0.000008 -0.000001 -0.000002 0.000000 -0.000003 1.947850 9.683073 -14.539796 -0.456427 -1.565423 -21.881030 -0.000005 -0.000003 -0.000006 -0.000002 -0.000001 0.000000 2.605848 14.896808 -31.345258 -0.576848 -2.712402 -32.011553 -0.000008 -0.000003 -0.000004 -0.000005 -0.000002 -0.000003 4.170562 18.495029 -34.987330 -0.706801 -5.788634 -39.372923 -0.000006 -0.000008 -0.000006 -0.000002 0.000002 0.000001 1.410920 9.461488 9.792765 0.000000 0.000000 0.000000 1.220049 -24.270695 60.532845 -6.660686 41.858422 8.043902 6.225209 12.322299 11.673244 -8.898178 -4.908920 -0.379249 7.904831 -19.192480 -2.856860 0.000002 -0.000004 -0.000014 -0.000001 0.000000 0.000000 -1.085502 -1.215480 4.525250 0.142011 -1.115592 16.942634 0.000004 0.000003 -0.000013 0.000001 0.000001 0.000001 -0.668344 -2.904953 12.731536 -0.667282 1.816592 30.578764 -0.000004 -0.000002 0.000013 0.000000 -0.000000 0.000001 2.423618 -7.404553 21.763296 -0.987208 3.762998 37.431185 -0.000001 -0.000000 0.000006 0.000000 0.000002 0.000003 3.480594 -10.053104 24.322321 -1.457041 7.871399 41.091989 -0.000001 -0.000002 0.000002 -0.000001 -0.000002 -0.000001 -28.111218 5.738635 13.369522 32.754240 -13.456388 -0.348491 -2.007541 0.406618 -7.757303 -2.319084 -3.216987 0.802955 0.000000 -0.000001 0.000000 -3.979657 -13.249658 -17.033059 31.810623 -8.607365 -0.293263 -19.550995 -4.359981 18.408622 -1.785013 -0.356694 0.333181 -0.000000 0.000000 0.000000 
-0.157438 107.331223 0.172008 -4.963325 -43.999799 -3.317322 5.930038 4.750037 -1.179958 12.025228 8.854461 -2.993143 0.000000 0.000000 0.000000 12.025226 8.854469 -2.993144 -10.777262 -0.439173 0.984891 -1.745463 21.729758 -1.808207 0.000001 0.000000 -0.000000 0.965646 -1.032584 -7.966036 0.000000 0.000000 0.000000 -15.103293 0.865219 -62.925085 10.783038 -44.898187 6.185701 16.918915 -0.292561 19.627064 9.349430 4.758713 -5.687996 -0.198643 0.325448 0.830094 0.000000 -0.000009 -0.000013 0.000000 0.000000 0.000003 -1.019733 -6.725080 -5.312753 -0.024096 0.621125 -18.002340 -0.000008 -0.000006 -0.000005 -0.000001 -0.000001 -0.000000 2.038161 9.433272 -15.807846 -0.518313 -1.712262 -23.341915 -0.000004 -0.000004 -0.000006 0.000000 -0.000001 0.000000 2.629685 14.587921 -32.393811 -0.622577 -2.782456 -33.387040 -0.000001 -0.000003 -0.000004 0.000002 0.000001 -0.000001 4.065086 18.024541 -36.188825 -0.726378 -5.810858 -40.750404 0.000002 -0.000008 -0.000004 0.000003 -0.000002 0.000001 0.953489 9.999493 9.272299 0.000000 0.000000 0.000000 0.949929 -23.054614 60.574564 -5.823106 42.180854 7.329594 6.263651 12.051182 10.451376 -8.629387 -4.893354 -0.125866 7.913491 -19.223984 -2.860407 0.000002 -0.000002 -0.000013 0.000001 -0.000001 -0.000000 -1.071997 -1.312169 5.663817 0.107974 -1.008041 18.067635 0.000005 -0.000002 -0.000015 -0.000000 -0.000001 -0.000001 -0.667780 -2.883310 13.714684 -0.713125 1.892761 31.571006 -0.000004 -0.000004 0.000013 -0.000000 -0.000001 -0.000002 2.379256 -7.310036 22.637130 -1.035018 3.824180 38.329492 -0.000002 0.000001 0.000003 0.000000 -0.000001 -0.000005 3.381067 -9.859281 25.095531 -1.498527 7.918866 41.906489 0.000000 -0.000004 0.000000 -0.000001 -0.000002 0.000003 -29.865504 5.753540 13.629069 33.832345 -13.072364 -0.291085 -2.138624 0.466989 -7.892834 -2.223151 -3.083361 0.769143 0.000000 -0.000001 -0.000000 -5.890369 -10.882245 -16.864941 33.663065 -10.182651 -0.493833 -19.832474 -4.282420 19.125199 -1.785003 -0.356735 0.333185 -0.000000 0.000000 0.000000 
0.485724 106.426399 -0.465971 -3.056423 -44.780318 -1.675430 6.043706 4.594736 -1.314454 12.224171 8.528405 -2.981039 0.000000 0.000000 0.000000 12.224174 8.528398 -2.981036 -12.706017 0.665370 1.229650 -2.359379 22.874643 -2.642888 0.000000 0.000000 -0.000000 0.265568 -1.356439 -8.721381 0.000000 0.000000 0.000000 -15.849128 -0.272486 -61.599106 11.914445 -42.970653 5.909688 17.937610 -1.587081 20.477107 9.860287 4.600692 -6.210172 0.178210 1.135728 0.954701 -0.000001 -0.000012 -0.000011 0.000000 -0.000001 0.000002 -1.259485 -6.014159 -9.465735 -0.209153 0.123939 -22.380658 -0.000002 -0.000005 -0.000002 0.000001 0.000000 -0.000000 2.249216 8.742714 -19.308588 -0.708687 -2.109437 -27.382310 0.000001 -0.000002 -0.000006 -0.000003 0.000000 -0.000001 2.646783 13.741503 -35.282647 -0.757560 -2.970195 -37.190513 -0.000001 -0.000004 -0.000004 0.000001 -0.000001 0.000000 3.684831 16.759102 -39.492649 -0.783273 -5.869786 -44.559095 0.000002 -0.000006 0.000000 0.000000 -0.000003 -0.000004 0.311094 10.730828 8.924906 0.000000 0.000000 0.000000 0.830479 -21.973970 60.244550 -4.994654 43.080004 7.063695 6.221346 11.810344 8.625586 -7.878580 -4.840427 0.584301 7.937766 -19.312210 -2.870367 0.000003 -0.000002 -0.000016 0.000001 0.000001 -0.000001 -1.004374 -1.581462 8.851907 0.001589 -0.710722 21.217827 0.000005 0.000002 -0.000010 -0.000000 0.000000 -0.000000 -0.662316 -2.824125 16.467579 -0.848401 2.101719 34.349790 -0.000003 -0.000002 0.000008 -0.000001 0.000002 -0.000002 2.247668 -7.051099 25.083672 -1.173870 3.991410 40.845153 -0.000001 0.000001 0.000001 0.000001 0.000001 -0.000000 3.080874 -9.327122 27.258576 -1.618330 8.048609 44.187786 0.000001 -0.000002 -0.000001 0.000000 0.000001 -0.000003 -32.523564 5.660213 13.599176 35.205746 -12.523271 -0.207349 -2.117563 0.529079 -8.075643 -2.120711 -2.940641 0.733047 -0.000000 0.000000 -0.000000 -9.047624 -8.199232 -17.011566 36.427783 -11.698353 -0.704866 -20.178267 -4.179079 19.885642 -1.954014 -0.510389 0.392325 0.000000 0.000001 0.000000 
1.247987 105.376724 -1.209552 -0.808947 -45.547038 0.295819 6.180196 4.398862 -1.492382 12.470201 8.138654 -3.034279 0.000000 0.000000 0.000000 12.470201 8.138649 -3.034280 -14.888607 1.797576 1.647219 -2.987667 24.094356 -3.539503 -0.000000 0.000000 -0.000000 -0.375965 -1.611367 -9.419201 0.000000 0.000000 0.000000 -16.940406 -1.632617 -60.270464 12.892821 -40.769075 5.492824 19.195891 -3.354583 21.651903 10.623834 4.348442 -6.998071 0.744559 2.361286 1.132679 -0.000000 -0.000011 -0.000017 -0.000000 0.000000 -0.000001 -1.386171 -4.956157 -15.725927 -0.554564 -0.599296 -28.997971 -0.000008 -0.000004 -0.000004 -0.000002 -0.000002 -0.000000 2.463029 7.707543 -24.585474 -1.048237 -2.681530 -33.490501 -0.000002 -0.000003 -0.000007 -0.000000 -0.000001 -0.000000 2.540723 12.492710 -39.622535 -0.984465 -3.235778 -42.938305 -0.000005 -0.000004 -0.000001 -0.000002 0.000001 -0.000002 2.877047 14.964207 -44.444478 -0.876365 -5.951373 -50.313424 0.000002 -0.000005 -0.000008 0.000000 0.000000 0.000000 -0.442256 11.779065 8.775498 0.000000 0.000000 0.000000 0.563398 -20.903032 59.747920 -4.165700 43.767774 6.786863 6.490515 12.058534 6.153611 -6.731241 -4.732389 1.676332 7.975046 -19.447676 -2.885661 0.000002 -0.000002 -0.000015 -0.000001 0.000001 0.000003 -0.815434 -1.983358 13.748250 -0.192955 -0.266697 26.056463 0.000004 -0.000001 -0.000015 -0.000000 -0.000001 -0.000001 -0.642467 -2.735976 20.695292 -1.075432 2.409178 38.618969 -0.000003 -0.000000 0.000013 -0.000000 -0.000000 0.000004 2.025490 -6.670641 28.840252 -1.401015 4.235907 44.710330 -0.000002 0.000002 0.000009 0.000002 0.000000 0.000000 2.559856 -8.543089 30.575328 -1.812412 8.238350 47.693176 0.000001 -0.000001 0.000001 -0.000000 0.000002 -0.000002 -35.556107 5.462202 13.521371 36.711311 -11.863110 -0.115714 -2.027816 0.606819 -8.316977 -2.012657 -2.790127 0.694965 0.000000 0.000003 0.000000 -12.817515 -6.034689 -17.379732 39.415410 -12.512605 -0.825632 -20.547080 -3.986976 20.431831 -2.113664 -0.667510 0.422012 -0.000000 0.000000 -0.000000 
